# xmcd database file
#
# Track frame offsets:
# 150
# 17478
# 48513
# 78680
# 96182
# 111949
# 127196
# 130991
# 154306
# 184173
# 198521
# 224293
# 241392
# 255929
#
# Disc length: 3619 seconds
#
# Revision: 0
# Processed by: cddbd v1.4PL0 Copyright (c) Steve Scherf et al.
# Submitted via: CD-Runner 2003.05
#
DISCID=c80e210e
DTITLE=son house/willie brown/leroy williams/others - Walking Blues
DYEAR=1979
DGENRE=Blues
TTITLE0=Levee Camp Blues
TTITLE1=Government Fleet Blues
TTITLE2=Walking Blues
TTITLE3=FO'Clock
TTITLE4=Make Me A Pallet On The Floor
TTITLE5=Going To Fishing
TTITLE6=Special Rider Blues /?/
TTITLE7=Uncle Sam Done Called
TTITLE8=Junior's A Jap Girl's Christmas For His Santa Claus
TTITLE9=Spread My Raincoat Down
TTITLE10=Water Coast Blues
TTITLE11=Army Blues
TTITLE12=Wind Howlin' Blues
TTITLE13=Roamin' and Ramblin' Blues
EXTD=son house/willie brown/leroy williams/willie '61' blackwell/fiddlin' joe martin/david edwards
EXTT0=
EXTT1=
EXTT2=
EXTT3=
EXTT4=
EXTT5=
EXTT6=
EXTT7=
EXTT8=
EXTT9=
EXTT10=
EXTT11=
EXTT12=
EXTT13=
PLAYORDER=
